<svg width="800" height="600" viewBox="0 0 800 600" fill="none" xmlns="http://www.w3.org/2000/svg">
  <rect x="0" y="0" width="800" height="600" rx="40" fill="#eef6ff"/>
  <path d="M128 200C128 166.386 156.386 138 190 138H610C643.614 138 672 166.386 672 200V380C672 413.614 643.614 442 610 442H190C156.386 442 128 413.614 128 380V200Z" fill="#ffffff" stroke="#cfe4ff" stroke-width="12"/>
  <rect x="210" y="236" width="380" height="26" rx="13" fill="#d0f0ff"/>
  <rect x="210" y="286" width="260" height="26" rx="13" fill="#d0f0ff"/>
  <rect x="210" y="336" width="180" height="26" rx="13" fill="#d0f0ff"/>
  <circle cx="565" cy="145" r="64" fill="#ffdd59"/>
  <path d="M546 136C546 126.058 554.058 118 564 118C573.942 118 582 126.058 582 136C582 145.942 573.942 154 564 154C554.058 154 546 145.942 546 136Z" fill="#1e3c72"/>
  <path d="M560 185L580 205" stroke="#1e3c72" stroke-width="16" stroke-linecap="round"/>
  <path d="M580 185L560 205" stroke="#1e3c72" stroke-width="16" stroke-linecap="round"/>
  <circle cx="250" cy="450" r="48" fill="#1e3c72" opacity="0.12"/>
  <circle cx="600" cy="465" r="24" fill="#06d6f1" opacity="0.65"/>
  <circle cx="160" cy="140" r="30" fill="#3a86ff" opacity="0.9"/>
  <path d="M504 312C504 292.908 520.908 276 540 276H640C659.092 276 676 292.908 676 312V348C676 367.092 659.092 384 640 384H540C520.908 384 504 367.092 504 348V312Z" fill="#caf0f8"/>
  <path d="M230 120C245.464 120 258 132.536 258 148C258 163.464 245.464 176 230 176C214.536 176 202 163.464 202 148C202 132.536 214.536 120 230 120Z" fill="#ff6b57"/>
  <path d="M330 90C344.091 90 356 101.909 356 116C356 130.091 344.091 142 330 142C315.909 142 304 130.091 304 116C304 101.909 315.909 90 330 90Z" fill="#06d6f1"/>
  <path d="M440 420C462.091 420 480 437.909 480 460C480 482.091 462.091 500 440 500C417.909 500 400 482.091 400 460C400 437.909 417.909 420 440 420Z" fill="#ffdd59"/>
</svg>
