<svg width="100%" height="100%" viewBox="0 0 800 600" fill="none" xmlns="http://www.w3.org/2000/svg">
  <rect width="800" height="600" rx="40" fill="#eef6ff"/>
  <rect x="80" y="120" width="520" height="340" rx="36" fill="#ffffff" stroke="#cfe4ff" stroke-width="10"/>
  <path d="M184 200C184 170.49 208.49 146 239 146H461C491.51 146 516 170.49 516 200V276C516 305.51 491.51 330 461 330H239C208.49 330 184 305.51 184 276V200Z" fill="#06d6f1"/>
  <rect x="226" y="224" width="210" height="18" rx="9" fill="#caf0f8"/>
  <rect x="226" y="258" width="160" height="18" rx="9" fill="#caf0f8"/>
  <circle cx="564" cy="210" r="56" fill="#ffdd59"/>
  <path d="M551 191C551 181.06 559.06 173 569 173C578.94 173 587 181.06 587 191C587 200.94 578.94 209 569 209C559.06 209 551 200.94 551 191Z" fill="#1e3c72"/>
  <path d="M560 240L580 260" stroke="#1e3c72" stroke-width="16" stroke-linecap="round"/>
  <path d="M580 240L560 260" stroke="#1e3c72" stroke-width="16" stroke-linecap="round"/>
  <path d="M132 96C161.673 96 184 118.327 184 148C184 177.673 161.673 200 132 200C102.327 200 80 177.673 80 148C80 118.327 102.327 96 132 96Z" fill="#ff6b57"/>
  <path d="M336 76C361.091 76 381 95.9091 381 121C381 146.091 361.091 166 336 166C310.909 166 291 146.091 291 121C291 95.9091 310.909 76 336 76Z" fill="#06d6f1"/>
  <path d="M540 54C564.092 54 584 73.9086 584 98C584 122.091 564.092 142 540 142C515.908 142 496 122.091 496 98C496 73.9086 515.908 54 540 54Z" fill="#3a86ff"/>
  <path d="M290 400C323.092 400 350 426.908 350 460C350 493.092 323.092 520 290 520C256.908 520 230 493.092 230 460C230 426.908 256.908 400 290 400Z" fill="#ffdd59"/>
  <circle cx="540" cy="435" r="38" fill="#06d6f1"/>
</svg>
